<svg width="0" height="0" class="hidden">
  <symbol xmlns="http://www.w3.org/2000/svg" viewBox="0 0 48 49" id="behance">
    <path d="M16.441 13.5C17.5007 13.5 18.4543 13.5918 19.3287 13.7789C20.1977 13.9642 20.939 14.2701 21.5652 14.6929C22.1823 15.1157 22.6645 15.6771 23.0117 16.3824C23.3482 17.0787 23.5155 17.9495 23.5155 18.9787C23.5155 20.0942 23.2636 21.0262 22.7581 21.7693C22.2489 22.5142 21.4986 23.1241 20.4982 23.5955C21.8602 23.9895 22.8696 24.6786 23.5389 25.6574C24.2118 26.6452 24.5411 27.8273 24.5411 29.2127C24.5411 30.3372 24.327 31.3034 23.897 32.1149C23.4826 32.9142 22.8814 33.6018 22.1445 34.1192C21.3812 34.6507 20.5286 35.0408 19.6274 35.2707C18.6825 35.5188 17.7094 35.6433 16.7324 35.6414H6V13.5H16.441ZM15.8094 22.4458C16.6731 22.4458 17.3891 22.2407 17.9541 21.8251C18.5155 21.4148 18.7872 20.7383 18.7872 19.8117C18.7872 19.2971 18.6954 18.8725 18.5155 18.5397C18.3402 18.2194 18.0807 17.9532 17.7652 17.7696C17.4349 17.5737 17.0704 17.4424 16.691 17.3827C16.2776 17.3056 15.8576 17.2689 15.437 17.273H10.8759V22.4458H15.8094ZM16.0811 31.872C16.5615 31.872 17.0185 31.8306 17.4485 31.7334C17.8821 31.6399 18.2672 31.4887 18.5946 31.2638C18.9221 31.0479 19.192 30.7546 19.3863 30.3804C19.5824 30.0098 19.6778 29.5258 19.6778 28.9446C19.6778 27.8039 19.3557 26.9924 18.7188 26.5013C18.0801 26.0155 17.2236 25.7744 16.1747 25.7744H10.8759V31.8738H16.0811V31.872ZM31.4915 31.7982C32.1519 32.4423 33.1037 32.7662 34.3415 32.7662C35.2285 32.7662 35.995 32.5413 36.6409 32.0951C37.2779 31.6471 37.6665 31.1685 37.8158 30.6737H41.6932C41.0707 32.6025 40.1261 33.9807 38.8342 34.8101C37.5586 35.6432 36.0058 36.057 34.1922 36.057C32.9291 36.057 31.792 35.8537 30.7736 35.4506C29.7962 35.07 28.9128 34.4819 28.1845 33.727C27.4683 32.9544 26.9145 32.0458 26.5562 31.0551C26.1624 29.9596 25.9674 28.8025 25.9805 27.6384C25.9805 26.4401 26.1802 25.3192 26.5724 24.2846C26.9448 23.2846 27.5165 22.3706 28.2529 21.5983C28.9816 20.8427 29.8452 20.2471 30.851 19.8099C31.9086 19.3651 33.0467 19.1434 34.194 19.1586C35.5506 19.1586 36.7363 19.4213 37.7547 19.9503C38.7422 20.4552 39.5985 21.1834 40.2556 22.0769C40.9087 22.964 41.3747 23.9805 41.6644 25.1194C41.9541 26.2566 42.0548 27.4441 41.9721 28.6873H30.4012C30.403 29.954 30.8294 31.1541 31.4915 31.7982ZM36.551 23.376C36.0274 22.7966 35.1422 22.4836 34.059 22.4836C33.3555 22.4836 32.7744 22.6005 32.3066 22.8416C31.8789 23.0577 31.4994 23.3582 31.1911 23.725C30.9203 24.0581 30.7196 24.4424 30.6009 24.855C30.4971 25.1989 30.4302 25.553 30.4012 25.9111H37.5657C37.4614 24.7884 37.0764 23.9589 36.551 23.376ZM29.5016 14.9862H38.478V17.1722H29.5016V14.9862Z" fill-opacity="0.55"></path>
  </symbol>
  <symbol fill="none" xmlns="http://www.w3.org/2000/svg" viewBox="0 0 9 17" id="chevron-right">
    <path d="M1 1.5L8 8.5L1 15.5" stroke="#E3E4E6" stroke-width="2" stroke-linecap="round" stroke-linejoin="round"></path>
  </symbol>
  <symbol xmlns="http://www.w3.org/2000/svg" viewBox="0 0 48 49" id="dribble">
    <path d="M38 24.5C38.0023 26.344 37.6392 28.1702 36.9317 29.8731C36.2241 31.576 35.1861 33.1217 33.8777 34.4211C32.5799 35.7166 31.0396 36.7436 29.3447 37.4435C27.6498 38.1433 25.8337 38.5024 24 38.5C16.2678 38.5 9.99997 32.2322 9.99997 24.5C9.99508 20.9102 11.374 17.4567 13.85 14.8575C15.1564 13.4789 16.7304 12.3814 18.4757 11.6322C20.2209 10.8829 22.1007 10.4977 24 10.5C25.8337 10.4976 27.6498 10.8566 29.3447 11.5565C31.0396 12.2564 32.5799 13.2834 33.8777 14.5789M38 24.5C38.0023 22.656 37.6392 20.8298 36.9317 19.1269C36.2241 17.424 35.1861 15.8783 33.8777 14.5789M38 24.5C35.9574 24.5 30.3224 23.7299 25.2789 25.944C19.8 28.3499 15.8331 32.0816 14.1041 34.4028M38 24.5C38 26.2241 37.6884 27.8746 37.1179 29.3999M33.8777 14.5789C32.6449 13.3506 31.1942 12.3623 29.5999 11.6647M18.75 11.518C20.941 13.5403 25.722 18.6895 27.5 23.8002C29.278 28.9116 29.936 35.1962 30.342 36.9847M10.1079 22.7501C12.7525 22.9097 19.7532 23.0532 24.2331 21.1401C28.7131 19.227 32.568 15.7081 33.8903 14.5916M11.0499 29.8291C12.2835 32.8152 14.5084 35.285 17.3499 36.8228" stroke-opacity="0.55" stroke-width="2.8" stroke-linecap="round" stroke-linejoin="round"></path>
  </symbol>
  <symbol fill="none" xmlns="http://www.w3.org/2000/svg" viewBox="0 0 48 49" id="linkedin">
    <path fill-rule="evenodd" clip-rule="evenodd" d="M20.4005 20.2813H25.6001V22.6123C26.3491 21.2717 28.2699 20.0671 31.1553 20.0671C36.6867 20.0671 37.9999 22.7358 37.9999 27.6322V36.7004H32.3999V28.7473C32.3999 25.9589 31.6509 24.3864 29.7441 24.3864C27.0995 24.3864 26.0005 26.0811 26.0005 28.746V36.7004H20.4005V20.2813Z" fill-opacity="0.55"></path>
    <path fill-rule="evenodd" clip-rule="evenodd" d="M10.7979 36.4862H16.3979V20.0671H10.7979V36.4862Z" fill-opacity="0.55"></path>
    <path fill-rule="evenodd" clip-rule="evenodd" d="M17.2002 14.713C17.2004 15.1354 17.1073 15.5537 16.9263 15.9435C16.7454 16.3333 16.4801 16.6868 16.146 16.9835C15.469 17.5891 14.5525 17.9281 13.598 17.926C12.6451 17.9254 11.7308 17.5873 11.0528 16.9848C10.7199 16.6871 10.4555 16.3331 10.2749 15.9433C10.0942 15.5535 10.0008 15.1354 10 14.713C10 13.86 10.378 13.0435 11.0542 12.4412C11.7316 11.8379 12.6463 11.4996 13.5994 11.5C14.5542 11.5 15.4698 11.8389 16.146 12.4412C16.8208 13.0435 17.2002 13.86 17.2002 14.713Z" fill-opacity="0.55"></path>
  </symbol>
  <symbol fill="none" xmlns="http://www.w3.org/2000/svg" viewBox="0 0 48 49" id="mail">
    <path d="M38 19.9509V31.3497C38.0001 32.5119 37.5554 33.6301 36.7573 34.4749C35.9591 35.3196 34.8679 35.8269 33.7076 35.8927L33.45 35.8997H14.55C13.3878 35.8998 12.2696 35.4552 11.4249 34.657C10.5801 33.8588 10.0728 32.7677 10.007 31.6073L10 31.3497V19.9509L23.5128 27.0293C23.6631 27.1081 23.8303 27.1492 24 27.1492C24.1697 27.1492 24.3369 27.1081 24.4872 27.0293L38 19.9509Z" fill="#E3E4E6" fill-opacity="0.55"></path>
    <path d="M14.5499 13.5H33.4499C34.5777 13.4999 35.6654 13.9186 36.502 14.675C37.3385 15.4314 37.8644 16.4715 37.9775 17.5936L23.9999 24.9156L10.0223 17.5936C10.1308 16.516 10.6202 15.5125 11.4024 14.7634C12.1845 14.0144 13.2083 13.5689 14.2895 13.507L14.5499 13.5H33.4499H14.5499Z" fill="#E3E4E6" fill-opacity="0.55"></path>
  </symbol>
</svg>